<svg xmlns="http://www.w3.org/2000/svg" viewBox="0 0 59.75 52"><title>Asset 15</title><path d="M50.43,46.78l0,.07,0,0c-.09-.14-.14-.2-.16-.23Z" style="fill:#005373"/><path d="M59.74,43.38V29.19a2,2,0,0,0-.53-1.34,1.93,1.93,0,0,0-1.47-.67H49.85V7.38c0-1.77,0-3.54,0-5.3V2a2,2,0,0,0-2-2H2A2,2,0,0,0,0,2V44.75c0,.16,0,.34,0,.5a6.94,6.94,0,0,0,2.44,5.1A7.18,7.18,0,0,0,7,52H52.8a1.92,1.92,0,0,0,.41,0,6.76,6.76,0,0,0,3.25-1,7.15,7.15,0,0,0,3-4A12.48,12.48,0,0,0,59.74,43.38Zm-8.86,3.9.07.06ZM5,47.29l.08.06ZM43.18,48H7a3.7,3.7,0,0,1-.47,0,4.43,4.43,0,0,1-.69-.19,4.08,4.08,0,0,1-.58-.32l-.08,0-.29-.27-.22-.24,0,.08-.08-.11,0,0c-.07-.08-.12-.18-.08-.14a4.67,4.67,0,0,1-.27-.49,5.6,5.6,0,0,1-.2-.7c0-.48,0-1,0-1.44V7.38C4,6.25,4,5.13,4,4H45.84V44.89A7.54,7.54,0,0,0,46.5,48Zm11.44-.65.08,0-.11.08-.05,0c-.08.06-.18.12-.14.08a4.67,4.67,0,0,1-.49.27,4.38,4.38,0,0,1-.71.19,3.84,3.84,0,0,1-.83,0,4.55,4.55,0,0,1-.7-.19,6.55,6.55,0,0,1-.58-.32l-.07,0-.3-.27-.21-.23.05.08-.08-.11,0-.06c-.06-.07-.12-.17-.08-.14a3.72,3.72,0,0,1-.27-.48,4.38,4.38,0,0,1-.19-.71c0-.58,0-1.18,0-1.76V31.18H55.7V43.32c0,.71,0,1.43,0,2.14a5.6,5.6,0,0,1-.2.7,4.71,4.71,0,0,1-.32.58l0,.07-.27.3ZM55,47l.06-.07S55,47,55,47Z" style="fill:#005373"/><path d="M54.52,47.4a.18.18,0,0,0,.07,0l0,0a1.51,1.51,0,0,0-.22.16Z" style="fill:#005373"/><path d="M4.55,46.79a.43.43,0,0,0,0,.07l0,0-.15-.22Z" style="fill:#005373"/><path d="M28.51,37.57H10a2,2,0,0,0,0,4H28.51a2,2,0,0,0,0-4Z" style="fill:#005373"/><path d="M41.84,10.08a2,2,0,0,0-2-2H13.66c-1.21,0-2.43,0-3.63,0h0a2,2,0,0,0-2,2V22.66a2,2,0,0,0,2,2H36.16c1.21,0,2.42,0,3.63,0h.05a2,2,0,0,0,2-2V10.08ZM29.73,20.66H12V12.08H37.84v8.58H29.73Z" style="fill:#005373"/><path d="M39.83,29.14H13.65c-1.21,0-2.42,0-3.63,0h0a2,2,0,0,0,0,4H36.15c1.21,0,2.43,0,3.63,0h0a2,2,0,0,0,0-4Z" style="fill:#005373"/></svg>