<svg xmlns="http://www.w3.org/2000/svg" viewBox="0 0 480.09 347.16"><title>Asset 3</title><path d="M0,65H18.07v56h24V65H60.18V195.49H42.1V136.23h-24v59.26H0Z" style="fill:#174885"/><path d="M73.54,65h49.15V80.22H91.57v40.84h29.3v15.17H91.57v44.09h31.12v15.17H73.54Z" style="fill:#174885"/><path d="M132.87,65h28c26.39,0,29.1,7,29.1,35.6,0,17.53-2.34,25.11-17.17,29.63v.36c12.29,1.31,16.45,7.59,16.45,19.87v28.38a88.8,88.8,0,0,0,1.08,16.61h-17c-1.81-3.24-2.16-6.54-2.16-11.77V154.36c0-12.28-2.17-15.54-14.1-15.54H151v56.74H132.87Zm18.07,58.54h4.73c14.27,0,16.26-2.71,16.26-22.24S170.85,80.2,159.65,80.2H151Z" style="fill:#174885"/><path d="M200.74,65h49.12V80.22h-31v40.84h29.26v15.17H218.82v44.09h31v15.17H200.74Z" style="fill:#174885"/><path d="M293.26,65h48.86v15.1h-30.9v40.55h29.11v15.09H311.22V194.6h-18Z" style="fill:#174885"/><path d="M351.59,98.19c0-17.88,5.85-33.65,29.93-33.65,22.84,0,30.09,11.87,30.09,31.7V160.9c0,17.9-5.85,33.66-30.09,33.66-22.67,0-29.93-11.86-29.93-31.71Zm17.72,65.71c0,11,4.95,16.82,12.21,16.82s12.39-5.85,12.39-16.82V96.8c0-12.57-4.25-18.42-12.39-18.42s-12.21,5.85-12.21,18.42Z" style="fill:#174885"/><path d="M423,65h27.85c26.23,0,28.92,7,28.92,35.38,0,17.43-2.34,25-17.07,29.46v.37C474.89,131.51,479,137.75,479,150v28.22a90.42,90.42,0,0,0,1.07,16.52H463.21c-1.8-3.23-2.16-6.46-2.16-11.68V153.73c0-12.21-2.15-15.44-14-15.44h-6.11v56.4H423Zm18,58.2h4.67c14.19,0,16.17-2.7,16.17-22.1s-1.08-21-12.22-21h-8.62Z" style="fill:#174885"/><path d="M41.3,252v-6.54c0-9-4.44-14.54-11.34-14.54-8.15,0-12.23,7.45-12.23,21.09v64.52c0,10.28,4.95,16.83,12.23,16.83A50.91,50.91,0,0,0,41.3,332.1V294.52H29.6V279.63H59V344a149.69,149.69,0,0,1-29.25,3.19C7.27,347.16,0,335.28,0,315.44V250.75c0-23.94,7.27-33.69,30.09-33.69,19,0,28.89,6.92,28.89,23.22V252Z" style="fill:#174885"/><path d="M71.61,250.75c0-17.91,5.85-33.69,30-33.69,22.85,0,30.08,11.88,30.08,31.74v64.69c0,17.89-5.84,33.67-30.08,33.67-22.7,0-30-11.88-30-31.72ZM89.33,316.5c0,11,5,16.83,12.24,16.83S114,327.48,114,316.5V249.32c0-12.58-4.25-18.43-12.4-18.43s-12.24,5.85-12.24,18.43Z" style="fill:#174885"/><path d="M143.74,250.75c0-17.91,5.86-33.69,30-33.69,22.86,0,30.08,11.88,30.08,31.74v64.69c0,17.89-5.86,33.67-30.08,33.67-22.69,0-30-11.88-30-31.72Zm17.73,65.75c0,11,5,16.83,12.23,16.83s12.41-5.85,12.41-16.83V249.32c0-12.58-4.25-18.43-12.41-18.43-8,0-12.23,5.85-12.23,18.43Z" style="fill:#174885"/><path d="M216,217.15h29c29.14,0,31.47,9.71,31.47,47.49v38.67c0,33.28-5.93,43.72-34.35,43.72H216ZM233.85,332h8.56c13.22,0,15.7-7,15.7-29.1v-44.3c0-19.09-2-25.51-17.13-25.51h-7.15Z" style="fill:#174885"/><path d="M0,0H6.21l4.35,35.84h.13L15.51,0h8.21l3.92,35.84h.13L33,0h5.68L30.83,43.56H23.47l-4-36.44h-.12L14.18,43.56H6.88Z" style="fill:#174885"/><path d="M41.7,0H58.11V5.06H47.73V18.71h9.83v5.06H47.73V38.5H58.11v5.06H41.7Z" style="fill:#174885"/><path d="M77.73,0h7l8.88,43.56h-6l-2-11.09H76.16l-2,11.09h-6Zm-.65,27.39h7.65L81,6.46h-.13Z" style="fill:#174885"/><path d="M96.5,0h9.36c8.81,0,9.72,2.35,9.72,11.89,0,5.85-.79,8.39-5.73,9.89v.12c4.09.43,5.48,2.54,5.48,6.64V38a29.37,29.37,0,0,0,.36,5.54H110a7.27,7.27,0,0,1-.73-3.92V29.81c0-4.1-.72-5.23-4.71-5.23h-2.06v19h-6Zm6,19.62h1.57c4.78,0,5.45-.91,5.45-7.43s-.37-7.06-4.11-7.06h-2.91Z" style="fill:#174885"/><path d="M120,0h16.41V5.06H126V18.71h9.78v5.06H126V38.5h10.38v5.06H120Z" style="fill:#174885"/></svg>