<svg xmlns="http://www.w3.org/2000/svg" viewBox="0 0 68.98 44.54"><defs><style>.cls-1{fill:#fff;}</style></defs><g id="Layer_2" data-name="Layer 2"><g id="BLog"><path class="cls-1" d="M40.76,3.62a3.48,3.48,0,0,0-3.75.8l-.24.32c-.24.24-.56.56-1,1a37.37,37.37,0,0,1-4.08,2.87,27.36,27.36,0,0,1-12,4.08H8.55a8.51,8.51,0,1,0,0,17l10,14a2.12,2.12,0,0,0,1.44.88h.32a2.17,2.17,0,0,0,1.36-.48l4.56-3.52a2.15,2.15,0,0,0,.4-3L21.1,29.75a27.3,27.3,0,0,1,10.47,3.92,35.84,35.84,0,0,1,4.08,2.88c.48.4.8.72,1,.88l.32.24h0a3.47,3.47,0,0,0,2.4,1,3.27,3.27,0,0,0,1.27-.24,3.39,3.39,0,0,0,2.08-3.12V6.81A3.3,3.3,0,0,0,40.76,3.62ZM24.06,38.71l-3.6,2.79L12,29.67h5.59ZM19.66,26.8H8.55a5.76,5.76,0,0,1,0-11.51h11a27.25,27.25,0,0,0,7.52-1.6V28.4A32.93,32.93,0,0,0,19.66,26.8Zm20.39,8.63a.6.6,0,0,1-.4.56.85.85,0,0,1-.64-.08.08.08,0,0,0-.08-.08l-.32-.32c-.24-.24-.64-.56-1.2-1A41.55,41.55,0,0,0,33,31.35a27.52,27.52,0,0,0-3.12-1.68V12.57A27.52,27.52,0,0,0,33,10.89a41.55,41.55,0,0,0,4.4-3.12c.48-.4.88-.8,1.2-1l.4-.4a.62.62,0,0,1,.64-.16.6.6,0,0,1,.4.56Z"/><path class="cls-1" d="M67.54,19.68h-12a1.44,1.44,0,1,0,0,2.88h12A1.43,1.43,0,0,0,69,21.12,1.39,1.39,0,0,0,67.54,19.68Z"/><path class="cls-1" d="M52,12.33a1.48,1.48,0,0,0,1-.4l9.52-9.51a1.42,1.42,0,0,0,0-2,1.4,1.4,0,0,0-2,0L51.08,9.93a1.4,1.4,0,0,0,0,2A1.45,1.45,0,0,0,52,12.33Z"/><path class="cls-1" d="M53,30.23a1.41,1.41,0,0,0-2,2l9.51,9.51a1.35,1.35,0,0,0,1.92,0,1.39,1.39,0,0,0,0-2Z"/></g></g></svg>