<svg xmlns="http://www.w3.org/2000/svg" viewBox="0 0 343.41 81.91"><title>Asset 2</title><polygon points="155.53 17.29 155.53 18.22 152.14 18.22 150.59 20.7 147.25 26.27 148.91 29.46 154.48 40.31 156.42 43.81 160.2 43.81 160.2 44.74 148.06 44.74 148.06 43.81 151.25 43.81 149.93 41.01 144.32 30.2 141.61 30.2 141.61 40.39 141.64 43.81 145.18 43.81 145.18 44.74 133.71 44.74 133.71 43.81 137.25 43.81 137.29 40.39 137.29 21.68 137.25 18.22 133.71 18.22 133.71 17.29 145.18 17.29 145.18 18.22 141.64 18.22 141.61 21.68 141.61 29.11 144.13 29.11 149.19 20.7 150.63 18.22 147.25 18.22 147.25 17.29 155.53 17.29 155.53 17.29" style="fill:#fff"/><path d="M179.46,43.81v.93h-2.84a9.12,9.12,0,0,1-1.4-.07,3,3,0,0,1-2.92-2.61c-.74,1-2.14,3.07-6.15,3.07a5.19,5.19,0,0,1-3.65-1.24,6.07,6.07,0,0,1-1.44-4.4,5,5,0,0,1,1.29-3.73c1.08-1.09,2.17-1.32,5.56-2a29.41,29.41,0,0,0,4.62-1.33V31c0-2.64-.07-4.59-3.14-4.59s-3.08,1.91-3.12,3.12c0,.81-.08,2-1.86,2-.82,0-1.91,0-1.91-1.63a3.72,3.72,0,0,1,.31-1.44c.93-2.3,3.81-2.92,6.69-2.92a10.66,10.66,0,0,1,4.44.82c2.41,1.2,2.41,3.38,2.41,5.17V40c0,2.92.31,3.77,2.13,3.77Zm-6.93-10.38-3.5,1c-2,.62-3.73,1.36-3.73,5.21,0,1.13,0,4.12,2.65,4.12a3.8,3.8,0,0,0,2.76-1.24c1.67-1.68,1.75-3.78,1.82-5.8V33.43Z" style="fill:#fff"/><path d="M200.62,43.81h3v.93h-10v-.93h3.07l0-3.07V33.66c0-4,0-5.14-1-6.07a2.61,2.61,0,0,0-1.79-.62,4.61,4.61,0,0,0-3.19,1.4c-2.06,2.06-2.14,4.82-2.22,7.27v5.1l0,3.07h3.19v.93H181.33v-.93h3.42l0-3.07V30.28l0-3.39h-3.42V26H185a34,34,0,0,0,3.69-.16l0,3.66a7.13,7.13,0,0,1,6.69-3.81c5.25,0,5.25,4,5.25,6.18,0,.94,0,1.91,0,2.84v6.07l0,3.07Z" style="fill:#fff"/><path d="M208.05,37.7c.11,1.72.27,3.55,1.83,5A4.81,4.81,0,0,0,213.42,44c2.8,0,4.35-1.39,4.35-3.34,0-2.22-1.94-3-4.55-3.85-2.29-.78-5.76-2-5.76-5.8,0-3.38,2.53-5.56,6.27-5.56a17.87,17.87,0,0,1,5.44,1.13l.08,5h-1.13c-.27-1.56-.89-5-4.55-5-2.18,0-3.42,1.32-3.42,2.76a2.44,2.44,0,0,0,.7,1.75c.54.55.85.66,3.89,1.75s6,2.34,6,6.23c0,3.54-2.87,6.06-7.3,6.06A21.19,21.19,0,0,1,207,43.89V37.7Z" style="fill:#fff"/><path d="M242.66,43.81v.93h-2.84a9.18,9.18,0,0,1-1.4-.07,3,3,0,0,1-2.92-2.61c-.73,1-2.13,3.07-6.14,3.07a5.23,5.23,0,0,1-3.66-1.24,6.07,6.07,0,0,1-1.44-4.4,5.06,5.06,0,0,1,1.29-3.73c1.09-1.09,2.18-1.32,5.56-2a29.27,29.27,0,0,0,4.63-1.33V31c0-2.64-.07-4.59-3.15-4.59s-3.07,1.91-3.11,3.12c0,.81-.08,2-1.87,2-.82,0-1.91,0-1.91-1.63a3.56,3.56,0,0,1,.32-1.44c.93-2.3,3.81-2.92,6.69-2.92a10.64,10.64,0,0,1,4.43.82c2.41,1.2,2.41,3.38,2.41,5.17V40c0,2.92.31,3.77,2.14,3.77Zm-6.92-10.38-3.5,1c-2,.62-3.73,1.36-3.73,5.21,0,1.13,0,4.12,2.64,4.12a3.78,3.78,0,0,0,2.76-1.24c1.67-1.68,1.76-3.78,1.83-5.8V33.43Z" style="fill:#fff"/><path d="M246.94,37.7c.12,1.72.28,3.55,1.83,5A4.83,4.83,0,0,0,252.31,44c2.8,0,4.35-1.39,4.35-3.34,0-2.22-1.94-3-4.55-3.85-2.29-.78-5.75-2-5.75-5.8,0-3.38,2.53-5.56,6.26-5.56a17.87,17.87,0,0,1,5.45,1.13l.07,5H257c-.26-1.56-.89-5-4.54-5-2.18,0-3.43,1.32-3.43,2.76a2.49,2.49,0,0,0,.7,1.75c.55.55.86.66,3.89,1.75s6,2.34,6,6.23c0,3.54-2.87,6.06-7.31,6.06a21.24,21.24,0,0,1-6.46-1.24V37.7Z" style="fill:#fff"/><path d="M296.69,42.53a19.27,19.27,0,0,1-9.53,2.72c-7.51,0-12.92-5.17-12.92-14.12,0-8.75,5.18-14.24,13.39-14.24A21.53,21.53,0,0,1,296.69,19v7.24h-1.16a9.63,9.63,0,0,0-1-4.16A7.21,7.21,0,0,0,287.78,18,8.35,8.35,0,0,0,282,20.16c-2.26,2.18-2.8,5.76-2.8,10.66,0,5.45.66,9,2.68,11.08a7.65,7.65,0,0,0,5.52,2.18,7.56,7.56,0,0,0,7-4.7,10.39,10.39,0,0,0,1.06-4.52h1.16v7.67Z" style="fill:#fff"/><path d="M303.31,26c1.55,0,2.1,0,3.62-.16l0,4.09V40.51l0,3.3H310v.93H299.69v-.93H303l0-3.3V29.89l0-3h-3.35V26Zm-.74-6.15a2.25,2.25,0,1,1,.66,1.6,2.3,2.3,0,0,1-.66-1.6Z" style="fill:#fff"/><path d="M318.4,20.82,318.33,26h4.16v1.09h-4.12l-.08,13c0,1.32,0,3.62,2.14,3.62,1.36,0,2.18-1,2.76-2.3l.81.39c-.85,1.79-1.78,3.23-5,3.23-4.47,0-4.47-2.8-4.47-4.67l.11-13.22h-3V26h3l.08-5.14Z" style="fill:#fff"/><path d="M343.41,26v.93h-3l-1.24,3.85-5.06,16.11c-.93,2.95-2.1,6.37-5.75,6.37-3.82,0-3.82-3-3.82-3.19a1.78,1.78,0,0,1,1.79-2,1.48,1.48,0,0,1,1.13.43c.42.43.47.51.58,2.1,0,.39.12,1.4,1.28,1.4,2.1,0,3.12-3.42,4.28-7.2L327.74,30.9l-1.79-4h-2.8V26h10.46v.93h-3.26L331.59,30l3.81,9.22,2.84-9.18.93-3.19H336V26Z" style="fill:#fff"/><path d="M53.51,56.79a3.85,3.85,0,1,1-7.7,0,3.86,3.86,0,0,1,3.84-3.85,3.72,3.72,0,0,1,2.73,1.13,3.68,3.68,0,0,1,1.13,2.72Zm-3.86-3.32a3.16,3.16,0,0,0-2.34,1,3.34,3.34,0,0,0,0,4.71,3.32,3.32,0,0,0,4.69,0,3.22,3.22,0,0,0,1-2.37,3.33,3.33,0,0,0-3.32-3.32Zm-.07,1.19a3.31,3.31,0,0,1,1.16.15,1.07,1.07,0,0,1,.65,1.08.94.94,0,0,1-.41.83,1.5,1.5,0,0,1-.61.21,1,1,0,0,1,.72.41,1.12,1.12,0,0,1,.23.66v.31c0,.1,0,.2,0,.31a.51.51,0,0,0,0,.22l0,0h-.7v0a.06.06,0,0,1,0,0l0-.14v-.34a1,1,0,0,0-.4-1,1.76,1.76,0,0,0-.83-.14h-.58v1.66H48.1V54.66ZM50.67,56a.65.65,0,0,0-.28-.62,1.9,1.9,0,0,0-.91-.16h-.63v1.54h.67a2.1,2.1,0,0,0,.71-.1.65.65,0,0,0,.44-.66Z" style="fill:#0082ca"/><path d="M111.76,56.79a3.86,3.86,0,0,1-3.86,3.87,3.72,3.72,0,0,1-2.73-1.13,3.79,3.79,0,0,1-1.12-2.74,3.86,3.86,0,0,1,7.71,0Zm-3.86-3.32a3.16,3.16,0,0,0-2.35,1,3.2,3.2,0,0,0-1,2.34,3.25,3.25,0,0,0,1,2.37,3.33,3.33,0,0,0,4.7,0,3.25,3.25,0,0,0,1-2.37,3.31,3.31,0,0,0-3.31-3.32Zm-.08,1.19a3.27,3.27,0,0,1,1.16.15,1.06,1.06,0,0,1,.66,1.08.92.92,0,0,1-.42.83,1.5,1.5,0,0,1-.61.21,1,1,0,0,1,.73.41,1.2,1.2,0,0,1,.23.66v.31c0,.1,0,.2,0,.31a.65.65,0,0,0,0,.22l0,0h-.7v0a.06.06,0,0,0,0,0v-.48a1,1,0,0,0-.4-1,1.82,1.82,0,0,0-.83-.14h-.59v1.66h-.75V54.66ZM108.91,56a.64.64,0,0,0-.28-.62,1.88,1.88,0,0,0-.9-.16h-.64v1.54h.67a2,2,0,0,0,.71-.1.64.64,0,0,0,.44-.66Z" style="fill:#0082ca"/><polygon points="42.2 59.19 42.2 42.92 58.47 42.92 58.47 16.91 42.2 16.91 42.2 0.64 16.27 0.64 16.27 16.91 0 16.91 0 42.92 16.27 42.92 16.27 59.19 42.2 59.19" style="fill:#0082ca"/><path d="M14.23,24.29l10.79,1a2.33,2.33,0,0,1,1.72,3.43L19.35,42.63v0a16.09,16.09,0,0,1-5.12-18.32Z" style="fill:#fff"/><path d="M29.32,15.93a2.06,2.06,0,0,0-1.65,3.26c.76,1,.91,1.28.86,2.2s-.75,1.73-2.38,1.77H14.71a16.07,16.07,0,0,1,14.57-9.27" style="fill:#fff"/><path d="M15.83,26.67l8.17.75c.59,0,.63.3.5.64L18.78,39a13.83,13.83,0,0,1-3.34-9A14.25,14.25,0,0,1,15.83,26.67Z" style="fill:#0082ca"/><path d="M25.43,16.66a3.58,3.58,0,0,0,.62,4A.18.18,0,0,1,26,21H18.76A13.86,13.86,0,0,1,25.43,16.66Z" style="fill:#0082ca"/><path d="M44.33,24.29l-10.79,1a2.33,2.33,0,0,0-1.72,3.43L39.2,42.63v0A16.08,16.08,0,0,0,45.35,30a15.89,15.89,0,0,0-1-5.67Z" style="fill:#fff"/><path d="M29.23,15.93a2.06,2.06,0,0,1,1.66,3.26c-.76,1-.91,1.28-.87,2.2s.75,1.73,2.39,1.77H43.84a16,16,0,0,0-14.56-9.27" style="fill:#fff"/><path d="M42.72,26.67l-8.16.75c-.59,0-.64.3-.5.64L39.78,39a13.82,13.82,0,0,0,2.94-12.31Z" style="fill:#0082ca"/><path d="M33.12,16.66a3.56,3.56,0,0,1-.61,4,.18.18,0,0,0,.05.33H39.8A13.94,13.94,0,0,0,33.12,16.66Z" style="fill:#0082ca"/><path d="M29.28,46a16,16,0,0,0,8.84-2.64h0L30.28,31.68a1.15,1.15,0,0,0-2,0L20.44,43.4h0A16,16,0,0,0,29.28,46" style="fill:#fff"/><path d="M90.58,59.82c11.24-6.21,18-16.09,21.56-26.94C115.78,21.62,115.18,8.3,111,0A44.12,44.12,0,0,1,90.58,4.88,43.54,43.54,0,0,1,70.2,0C66,8.3,65.38,21.62,69,32.88c3.51,10.85,10.32,20.73,21.56,26.94Z" style="fill:#0082ca"/><path d="M90.57,54.79c9.25-5.73,14.18-13.93,17.33-23.2,2.8-8.23,3.49-17.85.41-25.37a51.2,51.2,0,0,1-9.85,2.47,50.48,50.48,0,0,1-7.87.64h0a50.7,50.7,0,0,1-7.87-.64,51.38,51.38,0,0,1-9.85-2.47c-3.08,7.52-2.39,17.14.41,25.37,3.15,9.27,8.08,17.47,17.33,23.2Z" style="fill:#fff"/><path d="M90.58,52.52c6.25-3.93,13.34-12.86,16.18-24.61,1.5-6.24,1.92-13.24,0-18.8a63.4,63.4,0,0,1-8.12,1.73,62.64,62.64,0,0,1-8,.65h0a62.79,62.79,0,0,1-8-.65,63.77,63.77,0,0,1-8.12-1.73c-2,5.56-1.54,12.56,0,18.8,2.84,11.75,9.93,20.68,16.19,24.61Z" style="fill:#0082ca"/><path d="M84.19,15.66a4.42,4.42,0,0,0-1.89,5.77A6.71,6.71,0,0,0,86.63,25a12.28,12.28,0,0,0,2.89.4,16.49,16.49,0,0,1,3.44.39,1,1,0,0,1,.64.44A1,1,0,0,1,93,27.62c0,1-.1,3-.1,3s4.9-.47,4.07-4.88a4,4,0,0,0-2-2.62c-2.47-1.27-5.17-.72-7.69-1.54-.85-.27-2-.7-2.26-1.65-.09-.38,0-1.14.38-1.27.64-.2,1.34.33,2.27.54a3.17,3.17,0,0,0,1.62,0c.2-.06.5-.14.52-.26s-.25-.19-.37-.25a6.27,6.27,0,0,0-.89-.33,12.46,12.46,0,0,1-1.53-.73,7.1,7.1,0,0,1,1.78-.07,8.27,8.27,0,0,0,1.93-.06c.07,0,.25-.09.17-.22s-.37-.32-.52-.53a2.92,2.92,0,0,0-1.21-1.18A6.09,6.09,0,0,0,84.19,15.66Z" style="fill:#fff"/><path d="M92.38,31.41l0-5.15a12.29,12.29,0,0,0-1.59-.2C89.62,26,89.07,26,89.07,26v.43s-.58.25-.67.41-.19.26-.12.45a19.22,19.22,0,0,1,1.32,3.87C90.5,31.29,91.29,31.26,92.38,31.41Z" style="fill:#fff"/><path d="M86.22,30.63a3.07,3.07,0,0,0,2.57,3.45,28.13,28.13,0,0,0,3.47.48,2.2,2.2,0,0,1,.72.13.59.59,0,0,1,.36.35.49.49,0,0,1-.09.48,1.19,1.19,0,0,1-.48.25L92.7,38.2a4.28,4.28,0,0,0,1.77-.51,2.74,2.74,0,0,0,1.38-1.75,2.88,2.88,0,0,0-.53-2.47,3.64,3.64,0,0,0-1.77-1.17,23.05,23.05,0,0,0-4.47-.64.51.51,0,0,1-.45-.41.57.57,0,0,1,.31-.55s-.17-.58-.36-1.14-.41-1-.58-1.34A3,3,0,0,0,86.22,30.63Z" style="fill:#fff"/><path d="M92.26,35.12l0,4.36L91.13,39l-1.08-.45,0-3.64C91,35,91.44,35,92.26,35.12Z" style="fill:#fff"/><path d="M87.38,37.52a2.61,2.61,0,0,0,1.34,3.38c.62.31,1.43.58,2.1.84s1.81,1,1.9,1.31-.19.42-.19.42l0,1.7a3.33,3.33,0,0,0,1.24-.58,2.18,2.18,0,0,0,.85-1.78c0-.94-.44-1.66-1.77-2.44a30.91,30.91,0,0,0-3.24-1.51.5.5,0,0,1-.21-.51.44.44,0,0,1,.16-.25l0-2a4.56,4.56,0,0,0-1.1.35A2.37,2.37,0,0,0,87.38,37.52Z" style="fill:#fff"/><path d="M92.08,43.32c0-.14,0-.16-.1-.26a3.38,3.38,0,0,0-.82-.57,8.21,8.21,0,0,0-1-.43s0,4.46.13,6.77c0,.52.31.65.81.68s.79-.35.8-.57C92,48.2,92.05,45,92.08,43.32Z" style="fill:#fff"/><path d="M92.55,14.62c.22.17.22.18.29.51.15.71,0,1.83.14,2.32a.23.23,0,0,0,.35.08c1-.53,1.66-1.45,2.66-1.87.47-.2,1.77.45,1.46,1.43-.14.46-.34.53-.63.83-.58.6-1.41,1.17-2.12,2a10.84,10.84,0,0,0-1.45,1.51c-.12.19-.32.46-.32.46-1.39-.29-2.78-.24-3.86-.46V19.78s1.1-.18,1.31-.73a.37.37,0,0,0-.17-.34,2.8,2.8,0,0,0-.61-.32,10,10,0,0,1,2.86.82.52.52,0,0,0,0-.47c-.15-.17-.22-.22-.6-.31-.66-.17-2.43-.38-2.43-.38a12.27,12.27,0,0,0,1.51-.12c.33-.06.6-.12.68-.24s-.06-.43-.3-.68a5.43,5.43,0,0,1-.46-.51,5.74,5.74,0,0,0-.72-.89,5.92,5.92,0,0,0-.88-.54,3,3,0,0,1,.07-1.21.58.58,0,0,1,.64-.32A7.84,7.84,0,0,0,92.55,14.62Z" style="fill:#fff"/><path d="M89.05,16.29a1.31,1.31,0,0,1-.57.32c-.45.08-.39-.31-.7-.54s-.38,0-.55-.28c.66,0,1.53,0,2,.47A.26.26,0,0,0,89.05,16.29Z" style="fill:#0082ca"/><path d="M29.05,34.33a.27.27,0,0,1,.46,0l5.4,8.28a13.91,13.91,0,0,1-11.26,0l5.4-8.28a.27.27,0,0,1,.46,0" style="fill:#0082ca"/><path d="M89.11,45a2.86,2.86,0,0,0-.79,1.76,2.19,2.19,0,0,0,.32,1.48.37.37,0,0,0,.7,0c.11-.27,0-.52,0-1.12a1.15,1.15,0,0,1,.42-.68l0-2A2.83,2.83,0,0,0,89.11,45Z" style="fill:#fff"/><path d="M171.38,60.44h3v9.22h4V60.44h3V81.91h-3V72.16h-4v9.75h-3Z" style="fill:#0082ca"/><path d="M183.48,60.44h8.09v2.5h-5.12v6.72h4.82v2.5h-4.82v7.25h5.12v2.5h-8.09Z" style="fill:#0082ca"/><path d="M193.24,60.44h4.61c4.34,0,4.79,1.16,4.79,5.86,0,2.89-.39,4.14-2.83,4.88v.06c2,.21,2.71,1.25,2.71,3.27v4.67a14.54,14.54,0,0,0,.18,2.73h-2.8a3.64,3.64,0,0,1-.36-1.93V75.13c0-2-.35-2.55-2.32-2.55h-1v9.33h-3Zm3,9.64H197c2.35,0,2.67-.45,2.67-3.66s-.18-3.48-2-3.48h-1.43Z" style="fill:#0082ca"/><path d="M204.41,60.44h8.09v2.5h-5.12v6.72h4.82v2.5h-4.82v7.25h5.12v2.5h-8.09Z" style="fill:#0082ca"/><path d="M219.64,60.44h8v2.48h-5.09V69.6h4.79v2.48h-4.79v9.7h-3Z" style="fill:#0082ca"/><path d="M229.34,66c0-2.93.95-5.51,4.9-5.51,3.74,0,4.93,1.94,4.93,5.2V76.24c0,2.93-.95,5.51-4.93,5.51-3.71,0-4.9-1.94-4.9-5.19Zm2.9,10.77c0,1.8.81,2.76,2,2.76s2-1,2-2.76v-11c0-2.06-.69-3-2-3s-2,1-2,3Z" style="fill:#0082ca"/><path d="M241,60.44h4.58c4.32,0,4.76,1.15,4.76,5.82,0,2.87-.38,4.11-2.81,4.85v.06c2,.2,2.7,1.24,2.7,3.25v4.64a15.28,15.28,0,0,0,.17,2.72H247.6a3.71,3.71,0,0,1-.35-1.92V75c0-2-.36-2.54-2.31-2.54h-1v9.28h-3Zm3,9.57h.77c2.33,0,2.66-.44,2.66-3.63s-.18-3.46-2-3.46h-1.42Z" style="fill:#0082ca"/><path d="M263.9,66.18V65.1c0-1.48-.72-2.38-1.86-2.38-1.33,0-2,1.22-2,3.46V76.75c0,1.69.81,2.76,2,2.76a8.24,8.24,0,0,0,1.86-.2V73.15H262V70.71h4.82V81.26a24.53,24.53,0,0,1-4.8.52c-3.69,0-4.88-2-4.88-5.2V66c0-3.92,1.19-5.52,4.94-5.52,3.11,0,4.74,1.14,4.74,3.81v1.92Z" style="fill:#fff"/><path d="M269,66c0-2.93,1-5.52,4.9-5.52,3.75,0,4.94,1.95,4.94,5.2V76.24c0,2.93-1,5.52-4.94,5.52-3.71,0-4.9-2-4.9-5.2Zm2.9,10.77c0,1.79.81,2.75,2,2.75s2-1,2-2.75v-11c0-2.06-.69-3-2-3s-2,1-2,3Z" style="fill:#fff"/><path d="M281,66c0-2.94,1-5.54,4.93-5.54,3.76,0,5,2,5,5.22V76.32c0,3-1,5.54-5,5.54-3.74,0-4.93-2-4.93-5.22Zm2.92,10.83c0,1.81.81,2.77,2,2.77s2-1,2-2.77V65.76c0-2.07-.7-3-2-3s-2,1-2,3Z" style="fill:#fff"/><path d="M293,60.45h4.78c4.8,0,5.19,1.6,5.19,7.84v6.37c0,5.49-1,7.21-5.67,7.21H293Zm3,18.93h1.42c2.2,0,2.61-1.15,2.61-4.83V67.19c0-3.18-.32-4.25-2.84-4.25H296Z" style="fill:#fff"/><path d="M158.23,60.44h1l.72,5.9h0l.79-5.9h1.35l.66,5.9h0l.85-5.9h.94l-1.29,7.17h-1.22l-.66-6h0l-.85,6h-1.2Z" style="fill:#0082ca"/><path d="M165.09,60.44h2.7v.83h-1.7v2.25h1.61v.83h-1.61v2.42h1.7v.84h-2.7Z" style="fill:#0082ca"/><path d="M158.14,69.4h1.15l1.46,7.17h-1l-.33-1.83h-1.55l-.32,1.83h-1ZM158,73.91h1.26l-.61-3.46h0Z" style="fill:#0082ca"/><path d="M161.23,69.4h1.54c1.45,0,1.6.38,1.6,1.95,0,1-.13,1.38-1,1.63v0c.68.07.91.42.91,1.09v1.56a5,5,0,0,0,.06.92h-.94a1.36,1.36,0,0,1-.11-.65V74.3c0-.67-.12-.85-.78-.85h-.34v3.12h-1Zm1,3.21h.26c.79,0,.9-.14.9-1.22s-.06-1.16-.68-1.16h-.48Z" style="fill:#0082ca"/><path d="M165.09,69.4h2.7v.83h-1.7v2.25h1.61v.83h-1.61v2.42h1.7v.84h-2.7Z" style="fill:#0082ca"/></svg>