<svg xmlns="http://www.w3.org/2000/svg" xmlns:xlink="http://www.w3.org/1999/xlink" viewBox="0 0 596 507"><defs><clipPath id="a" transform="translate(-31.2 42.62)"><circle cx="251.54" cy="217.65" r="195.66" style="fill:none"/></clipPath><clipPath id="b" transform="translate(-31.2 42.62)"><rect width="733.54" height="430.35" style="fill:none"/></clipPath></defs><title>Asset 7</title><circle cx="256.54" cy="478.83" r="21.82" style="fill:#2ac0d5"/><g style="clip-path:url(#a)"><g style="clip-path:url(#b)"><rect width="596" height="503" style="fill:#005373"/></g></g><circle cx="55.45" cy="185.51" r="21.82" style="fill:#2ac0d5"/><circle cx="33.89" cy="153.58" r="9.89" style="fill:#1877f2"/><circle cx="298.74" cy="494.84" r="12.16" style="fill:#1877f2"/><path d="M116.52,191.19h17.62c6.39,0,10.46,1.6,13,4.12a11.37,11.37,0,0,1,3.29,8.56v.1c0,5.26-2.73,8.92-7.11,11l8.4,12.26H138l-6.8-10.3h-2.57v10.3H116.52Zm17.26,17.16c2.89,0,4.64-1.29,4.64-3.5v-.11c0-2.31-1.81-3.45-4.59-3.45h-5.25v7.06Z" transform="translate(-31.2 42.62)" style="fill:#fff"/><path d="M152.59,209.33v-.1c0-10.46,8.61-18.81,19.74-18.81S192,198.66,192,209.12v.11c0,10.46-8.61,18.81-19.74,18.81S152.59,219.79,152.59,209.33Zm27.21,0v-.1c0-4.28-2.94-8.14-7.58-8.14s-7.47,3.81-7.47,8v.11c0,4.27,2.94,8.14,7.58,8.14S179.8,213.56,179.8,209.33Z" transform="translate(-31.2 42.62)" style="fill:#fff"/><path d="M203.09,214.48l-13.6-23.29H203L209.17,203l6.24-11.85h13.35l-13.61,23.14v12.93H203.09Z" transform="translate(-31.2 42.62)" style="fill:#fff"/><path d="M235.92,190.93h12l15.21,36.33H250l-1.91-4.84H235.46l-1.86,4.84H220.72Zm9.17,22.94-3.3-8.76-3.29,8.76Z" transform="translate(-31.2 42.62)" style="fill:#fff"/><path d="M265.76,191.19h12.06V217h16.95v10.3h-29Z" transform="translate(-31.2 42.62)" style="fill:#fff"/><path d="M295.6,221.85l6.44-7.68a20.65,20.65,0,0,0,12.62,4.23c2.17,0,3.09-.57,3.09-1.55v-.1c0-1-1.13-1.6-5-2.37-8.09-1.65-15.2-4-15.2-11.59v-.11c0-6.85,5.35-12.16,15.3-12.16,7,0,12.11,1.65,16.28,4.95l-5.87,8.14a18.94,18.94,0,0,0-10.82-3.56c-1.81,0-2.63.62-2.63,1.5v.1c0,1,1,1.6,4.79,2.32,9.23,1.7,15.41,4.38,15.41,11.65v.1c0,7.58-6.24,12.21-15.92,12.21C306.78,227.93,300.18,225.87,295.6,221.85Z" transform="translate(-31.2 42.62)" style="fill:#fff"/><path d="M116.52,231.27h17.62c6.39,0,10.46,1.6,13,4.12a11.37,11.37,0,0,1,3.29,8.56v.1c0,5.26-2.73,8.92-7.11,11l8.4,12.26H138l-6.8-10.3h-2.57v10.3H116.52Zm17.26,17.16c2.89,0,4.64-1.29,4.64-3.5v-.11c0-2.31-1.81-3.45-4.59-3.45h-5.25v7.06Z" transform="translate(-31.2 42.62)" style="fill:#fff"/><path d="M154.55,231.27h30.76v9.89H166.4v3.66H184v8.71H166.4v3.92h19.17v9.89h-31Z" transform="translate(-31.2 42.62)" style="fill:#fff"/><path d="M187,261.93l6.45-7.68a20.65,20.65,0,0,0,12.62,4.23c2.17,0,3.09-.57,3.09-1.55v-.1c0-1-1.13-1.6-5-2.37-8.09-1.65-15.2-4-15.2-11.59v-.11c0-6.85,5.36-12.16,15.31-12.16,6.95,0,12.11,1.65,16.28,5l-5.87,8.14a19,19,0,0,0-10.82-3.56c-1.81,0-2.63.62-2.63,1.5v.1c0,1,1,1.6,4.79,2.32,9.22,1.7,15.41,4.38,15.41,11.65v.1c0,7.57-6.24,12.21-15.93,12.21C198.2,268,191.6,266,187,261.93Z" transform="translate(-31.2 42.62)" style="fill:#fff"/><path d="M225.41,231.27h16.23c9.58,0,16.13,4.28,16.13,12.83v.11c0,8.7-6.65,13.34-16.39,13.34h-3.91v9.79H225.41ZM240.71,249c3.09,0,5.15-1.4,5.15-4v-.1c0-2.63-1.9-4-5.1-4h-3.29v8Z" transform="translate(-31.2 42.62)" style="fill:#fff"/><path d="M260.71,249.41v-.1c0-10.46,8.6-18.81,19.73-18.81s19.64,8.24,19.64,18.7v.11c0,10.46-8.61,18.8-19.74,18.8S260.71,259.87,260.71,249.41Zm27.2,0v-.1c0-4.28-2.93-8.15-7.57-8.15s-7.47,3.82-7.47,8v.11c0,4.27,2.93,8.14,7.57,8.14S287.91,253.64,287.91,249.41Z" transform="translate(-31.2 42.62)" style="fill:#fff"/><path d="M304.56,231.27h11.29l12.83,15.92V231.27h11.95v36.07H329.91L316.52,250.7v16.64h-12Z" transform="translate(-31.2 42.62)" style="fill:#fff"/><path d="M345.94,231.27h13.81c14.33,0,21.49,7.06,21.49,17.73v.1c0,10.67-7.32,18.24-21.9,18.24h-13.4ZM358,241.78v15h2c5.51,0,9.07-2.27,9.07-7.47v-.1c0-5.21-3.56-7.48-9.07-7.48Z" transform="translate(-31.2 42.62)" style="fill:#fff"/><path d="M345.36,196.6c0-1.95-1.18-2.57-2.24-2.56h-.35v-1h6.92v1c-1,.08-2,.75-2,2.55v6.07l.48-.3c1-1.56,3.62-5.69,4.16-6.88C353,194,352,194,351,194v-1h6.13v1h-.43c-.67,0-1.5,0-2.6,1.51-1.41,1.93-4.21,6.6-4.21,6.6,4.29.35,5.9,6.87,7,7.76-.63-4.66,2.48-10.46,7-10.24a7.54,7.54,0,0,1,2.59.4c1.46.44,1.59-.36,1.79-1.24h1.08v7.66h-.94c-.08-1.33-.67-5.72-4.51-5.85s-4.64,4.88-4.69,8.29c-.2,12.63,7.74,12.23,9.2,8.15.21-.59.12-.75-.12-.88-1.73-.93.28-3.41,1.39-1.24.51,1-.41,5.71-5.16,5.71-7.39,0-9.55-11.43-12.31-15.15-2.14-2.9-3.89-1.6-4.55-.89l0,2v3.55c0,2,1.19,2.58,2.25,2.56l.35,0v1h-7.51v-1l.35,0c1.06,0,2.24-.61,2.24-2.56V196.6" transform="translate(-31.2 42.62)" style="fill:#fff"/><path d="M345.36,196.6c0-1.95-1.18-2.57-2.24-2.56h-.35v-1h6.92v1c-1,.08-2,.75-2,2.55v6.07l.48-.3c1-1.56,3.62-5.69,4.16-6.88C353,194,352,194,351,194v-1h6.13v1h-.43c-.67,0-1.5,0-2.6,1.51-1.41,1.93-4.21,6.6-4.21,6.6,4.29.35,5.9,6.87,7,7.76-.63-4.66,2.48-10.46,7-10.24a7.54,7.54,0,0,1,2.59.4c1.46.44,1.59-.36,1.79-1.24h1.08v7.66h-.94c-.08-1.33-.67-5.72-4.51-5.85s-4.64,4.88-4.69,8.29c-.2,12.63,7.74,12.23,9.2,8.15.21-.59.12-.75-.12-.88-1.73-.93.28-3.41,1.39-1.24.51,1-.41,5.71-5.16,5.71-7.39,0-9.55-11.43-12.31-15.15-2.14-2.9-3.89-1.6-4.55-.89l0,2v3.55c0,2,1.19,2.58,2.25,2.56l.35,0v1h-7.51v-1l.35,0c1.06,0,2.24-.61,2.24-2.56V196.6" transform="translate(-31.2 42.62)" style="fill:#fff"/><polygon points="341.07 263.12 341.07 261.81 340.61 261.81 340.29 262.66 340.28 262.66 339.98 261.81 339.51 261.81 339.51 263.12 339.78 263.12 339.78 262.07 339.79 262.07 340.16 263.12 340.41 263.12 340.79 262.07 340.8 262.07 340.8 263.12 341.07 263.12" style="fill:#fff"/><polygon points="338.88 263.12 338.88 262.04 339.27 262.04 339.27 261.81 338.22 261.81 338.22 262.04 338.61 262.04 338.61 263.12 338.88 263.12" style="fill:#fff"/><polygon points="340.79 262.07 340.8 262.07 340.8 262.41 341.07 262.15 341.07 261.81 340.61 261.81 340.29 262.66 340.28 262.66 339.98 261.81 339.51 261.81 339.51 263.12 339.78 263.12 339.78 262.07 339.79 262.07 340.13 263.05 340.6 262.6 340.79 262.07" style="fill:#fff"/><polygon points="338.88 263.12 338.88 262.04 339.27 262.04 339.27 261.81 338.22 261.81 338.22 262.04 338.61 262.04 338.61 263.12 338.88 263.12" style="fill:#fff"/><path d="M386,197.82a16.85,16.85,0,0,0-6-11.71,16.3,16.3,0,0,0-10.62-3.82,17.9,17.9,0,0,0-11.85,4.52,17.9,17.9,0,0,0-11.85-4.52,16.3,16.3,0,0,0-10.62,3.82,17,17,0,0,0-1.83,24.19l.17.17,19.86,19.19a6.16,6.16,0,0,0,8.54,0l8.75-8.46a.7.7,0,0,1-.14,0,.83.83,0,0,1-.32.07h-.27a.74.74,0,0,1-.33-.09,7.4,7.4,0,0,1-4.93,1.74h0l-4.79,4.63a3.19,3.19,0,0,1-4.42,0L343.36,216h-.59a2.21,2.21,0,0,1-2.22-2.22v-.5l-5.1-4.92A14,14,0,0,1,337,188.39a13.46,13.46,0,0,1,8.71-3.13,15,15,0,0,1,11.14,5l.46.51a2.13,2.13,0,0,1,.44.07l.52-.59a15,15,0,0,1,11.14-5,13.46,13.46,0,0,1,8.71,3.13,14,14,0,0,1,1.51,19.94l-7.54,7.29a7.14,7.14,0,0,1-.63,2.88h.07a.88.88,0,0,1,.32-.07h.46a.74.74,0,0,1,.67.44l8.71-8.41.17-.17A16.87,16.87,0,0,0,386,197.82Z" transform="translate(-31.2 42.62)" style="fill:#fff"/><circle cx="320.56" cy="431.39" r="47.72" style="fill:#174885"/><circle cx="86.72" cy="116.42" r="47.72" style="fill:#174885"/></svg>