<svg xmlns="http://www.w3.org/2000/svg" viewBox="0 0 48.39 52.36"><title>Asset 5</title><path d="M46.79,37.24a9.39,9.39,0,0,0-1.85-2.08,10.9,10.9,0,0,0-1.34-1,12.25,12.25,0,0,0-1.55-.74,9.73,9.73,0,0,0-8.6.83,10.12,10.12,0,0,0-1.68,1.33l-3.55-2-8.88-5.06-.06,0,.06-.3a12.86,12.86,0,0,0,.21-1.75,2.26,2.26,0,0,0,0-.26,10.24,10.24,0,0,0-.28-2.33l3.6-2.05,8.88-5.05h0a10.08,10.08,0,0,0,3,2,9.83,9.83,0,0,0,6.22.49,9.76,9.76,0,0,0,7.18-7.69,13.41,13.41,0,0,0,.16-1.42,2.19,2.19,0,0,0,0-.36,9.65,9.65,0,0,0-1.6-5.35,9.17,9.17,0,0,0-1.85-2.08,11,11,0,0,0-1.34-1A12.19,12.19,0,0,0,42.05.63a9.75,9.75,0,0,0-13,7.2,11.7,11.7,0,0,0-.2,1.77,10.47,10.47,0,0,0,.18,2l.09.47-3.59,2.05c-3,1.69-5.92,3.38-8.89,5.06a9.73,9.73,0,0,0-4.36-2.48,9.47,9.47,0,0,0-2.95-.3A9.64,9.64,0,0,0,6.56,17a9.36,9.36,0,0,0-2.39,1.24,10.66,10.66,0,0,0-1.28,1,13,13,0,0,0-1.06,1.27A9.76,9.76,0,0,0,1.27,31a9.8,9.8,0,0,0,3.79,3.74,9.69,9.69,0,0,0,5.45,1.18,11.54,11.54,0,0,0,1.76-.29A11.17,11.17,0,0,0,13.94,35a9.54,9.54,0,0,0,2.39-1.58,3.83,3.83,0,0,0,.29-.28l3.56,2,8.88,5.06.05,0c0,.17-.07.35-.1.52a11.85,11.85,0,0,0-.18,2,9.77,9.77,0,0,0,3.56,7.36,11.15,11.15,0,0,0,1.39,1,10.91,10.91,0,0,0,1.52.69,9.23,9.23,0,0,0,2.8.56A9.51,9.51,0,0,0,41,52.06a9.76,9.76,0,0,0,7.18-7.69c.06-.43.12-.86.16-1.3a2.52,2.52,0,0,0,0-.48A9.68,9.68,0,0,0,46.79,37.24ZM35.9,6.25a6.67,6.67,0,0,1,1-.58A6.2,6.2,0,0,1,38,5.36a7.75,7.75,0,0,1,1.18,0,6.2,6.2,0,0,1,1.12.31,6.67,6.67,0,0,1,1,.58,6.72,6.72,0,0,1,.8.8,7.54,7.54,0,0,1,.58,1A9,9,0,0,1,43,9.17c0,.2,0,.4,0,.6a5.06,5.06,0,0,1,0,.55,6.86,6.86,0,0,1-.31,1.16,8.25,8.25,0,0,1-.58,1,6.72,6.72,0,0,1-.8.8,7.65,7.65,0,0,1-1,.58,7.14,7.14,0,0,1-1.12.31,7.75,7.75,0,0,1-1.18,0,8.42,8.42,0,0,1-1.12-.31,8.64,8.64,0,0,1-1-.57,6.43,6.43,0,0,1-.82-.83,6.32,6.32,0,0,1-.57-1,7.41,7.41,0,0,1-.32-1.14,7.74,7.74,0,0,1,0-1.18A7.41,7.41,0,0,1,34.52,8a7.54,7.54,0,0,1,.58-1A6.72,6.72,0,0,1,35.9,6.25ZM12.47,29.69a6.83,6.83,0,0,1-1,.58,8.28,8.28,0,0,1-1.11.31,7.75,7.75,0,0,1-1.18,0,8.56,8.56,0,0,1-1.13-.31,7.54,7.54,0,0,1-1-.58,6.72,6.72,0,0,1-.8-.8,6.67,6.67,0,0,1-.58-1,6.2,6.2,0,0,1-.31-1.12,7.75,7.75,0,0,1,0-1.18,6.2,6.2,0,0,1,.31-1.12,6.67,6.67,0,0,1,.58-1,6.72,6.72,0,0,1,.8-.8,7.54,7.54,0,0,1,1-.58,7.23,7.23,0,0,1,1.13-.3,6.64,6.64,0,0,1,1.18,0,8.86,8.86,0,0,1,1.12.31,9.61,9.61,0,0,1,1,.57,8,8,0,0,1,.82.83,8.5,8.5,0,0,1,.57,1,9,9,0,0,1,.31,1.13c0,.19,0,.39,0,.59s0,.4,0,.59a8.56,8.56,0,0,1-.31,1.13,7.74,7.74,0,0,1-.56,1A7.31,7.31,0,0,1,12.47,29.69ZM41.32,46.1a9,9,0,0,1-1,.58,7.11,7.11,0,0,1-1.12.3A7.75,7.75,0,0,1,38,47a7.11,7.11,0,0,1-1.12-.3,9,9,0,0,1-1-.58,7.65,7.65,0,0,1-.8-.81,6.94,6.94,0,0,1-.58-1,7,7,0,0,1-.3-1.11,6.76,6.76,0,0,1,0-1.19,6.4,6.4,0,0,1,.31-1.14c0-.1.1-.21.16-.31l.07-.12v0q.15-.25.33-.51a6.51,6.51,0,0,1,.83-.83,7.42,7.42,0,0,1,1-.58A8.86,8.86,0,0,1,38,38.18a6.64,6.64,0,0,1,1.18,0,7.11,7.11,0,0,1,1.12.3,7.65,7.65,0,0,1,1,.58,7.55,7.55,0,0,1,.8.8,7.65,7.65,0,0,1,.58,1A8.56,8.56,0,0,1,43,42c0,.2,0,.39,0,.59a5,5,0,0,1,0,.55,6.62,6.62,0,0,1-.31,1.16,6.94,6.94,0,0,1-.58,1A7.65,7.65,0,0,1,41.32,46.1Z" style="fill:#fff"/></svg>